# xmcd
#
# Track frame offsets: 
#        150
#        13645
#        24647
#        32840
#        49242
#        59927
#        74425
#        81237
#        96615
#        105872
#        127977
#
# Disc length: 1883 seconds
#
# Revision: 1
# Processed by: cddbd v1.5.2PL0 Copyright (c) Steve Scherf et al.
# Submitted via: ExactAudioCopy v0.99pb5
#
DISCID=9907590b
DTITLE=Χατζιδάκις - Καπετάν Μιχάλης
DYEAR=1966
DGENRE=Ελληνικά
TTITLE0=Εισαγωγή - Χορός
TTITLE1=Όμορφη που 'ναι η Κρήτη
TTITLE2=Μουσική για την Εμινέ
TTITLE3=Δεν ήταν νησί
TTITLE4=Κυρά μου Αμπελιώτισσα
TTITLE5=Η κρασογιώργαινα
TTITLE6=Μεγαλοβδόμαδο
TTITLE7=Κερκάζικο τραγούδι (Το μοτίβο της Εμινέ)
TTITLE8=Βαριά απόψε η νύχτα (Ερωτικός άνεμος)
TTITLE9=Η σφαγή
TTITLE10=Πού είναι ο Θεός;
EXTD=
EXTT0=
EXTT1=
EXTT2=
EXTT3=
EXTT4=
EXTT5=
EXTT6=
EXTT7=
EXTT8=
EXTT9=
EXTT10=
PLAYORDER=
